# xmcd
#
# Track frame offsets:
# 150
# 14235
# 29824
# 49756
# 67163
# 82379
# 101726
# 120745
# 137857
# 155425
# 174161
# 193508
#
# Disc length: 2807 seconds
#
#
# Revision: 0
# Processed by: cddbd v1.5.1PL0 Copyright (c) Steve Scherf et al.
# Submitted via: FreeRIP 2.94 
#
DISCID=b40af50c
DTITLE=Miranda Lambert - Kerosene
DYEAR=2005
DGENRE=Country
TTITLE0=Kerosene
TTITLE1=What About Georgia?
TTITLE2=Greyhound Bound For Nowhere
TTITLE3=New Strings
TTITLE4=I Can't Be Bothered
TTITLE5=Bring Me Down
TTITLE6=Me And Charlie Talking
TTITLE7=I Wanna Die
TTITLE8=Love Is Looking For You
TTITLE9=Mama, I'm Alright
TTITLE10=There's A Wall
TTITLE11=Love Your Memory
EXTD=
EXTT0=
EXTT1=
EXTT2=
EXTT3=
EXTT4=
EXTT5=
EXTT6=
EXTT7=
EXTT8=
EXTT9=
EXTT10=
EXTT11=
PLAYORDER=
